<?xml version="1.0" encoding="utf-8"?>
<!-- Generator: Adobe Illustrator 23.0.3, SVG Export Plug-In . SVG Version: 6.00 Build 0)  -->
<svg version="1.1" id="Icons" xmlns="http://www.w3.org/2000/svg" xmlns:xlink="http://www.w3.org/1999/xlink" x="0px" y="0px"
	 viewBox="0 0 32 32" style="enable-background:new 0 0 32 32;" xml:space="preserve">
<g>
	<path d="M2,18.3c0,0.6,0.4,1,1,1c1.2,0,2.4-0.3,3.5-0.8L7.1,23h17.9l0.5-4.5c1.1,0.5,2.3,0.8,3.5,0.8c0.6,0,1-0.4,1-1
		c0-2.5-1.2-4.8-3.2-6.3C28.3,9.7,29,7.4,29,5c0-1.1,0-2.2-0.6-3.5c-0.2-0.4-0.6-0.5-1-0.5c-0.4,0.1-0.8,0.4-0.9,0.8
		c-1,4.2-4.9,7.1-9.6,7.1h-1.8c-4.7,0-8.6-2.9-9.6-7.1l0-0.1C5.4,1.4,5.1,1.1,4.6,1C4.2,1,3.8,1.2,3.6,1.5C3,2.8,3,3.9,3,5
		c0,2.4,0.7,4.7,2.2,7C3.2,13.5,2,15.8,2,18.3z"/>
	<path d="M7.3,25l0.1,1c0.3,2.9,2.8,5,5.7,5h5.8c2.9,0,5.3-2.2,5.7-5l0.1-1H7.3z"/>
</g>
</svg>
